<svg xmlns="http://www.w3.org/2000/svg" viewBox="-102 -126.92 254 254"><style>.d{fill:#17191c}@media (prefers-color-scheme:dark){.d{fill:#e9eae5}}</style><path class="d" d="M-32 94.74L-32 -18A14 14 0 0 1 -18 -32L16 -32C26.88 6.37 39.13 46.22 52.83 84.91A100 100 0 1 0 -32 94.74ZM10 -60A18 18 0 0 1 -26 -60A18 18 0 0 1 10 -60Z"/><path fill="#9bc2f6" d="M16 -32C16 40 17 90 34 100C70 102 125 85 150 48C80 30 36 -14 16 -32Z"/><path fill="#f9e6a2" d="M16 -32C16 40 17 90 34 100C59.44 101.41 94.36 93.34 121.48 75.43C80.05 41.76 45.06 1.67 16 -32Z"/><path fill="#f8a898" d="M16 -32C16 40 17 90 34 100C50.84 100.94 71.84 97.71 91.98 90.23C62.51 50.91 37.29 7.32 16 -32Z"/><path fill="#95d4a9" d="M16 -32C16 40 17 90 34 100C41.3 100.41 49.39 100.03 57.85 98.86C42.1 55.86 28.2 11.01 16 -32Z"/></svg>
